<svg viewBox="0 0 48 48" xmlns="http://www.w3.org/2000/svg" class="_1ipmsl70" data-testid="superdriver-mask">
<g clip-path="url(#clip0_3378_48454)">
<circle cx="24" cy="24" r="21.5" stroke="white" stroke-width="6" fill="none"></circle>
<path d="M18.1995 0.909973L17.7288 0.928718C15.837 1.00405 14.0155 2.48136 13.5329 4.44328C13.4077 4.95237 13.1342 5.42981 12.6889 5.70643C12.4945 5.82717 12.3022 5.95093 12.112 6.07765C12.2149 5.43177 12.1793 4.75626 11.9706 4.09425L11.829 3.64494L11.3802 3.7884C9.54509 4.37509 8.16058 6.34147 8.26201 8.40085C8.28757 8.91968 8.16505 9.45041 7.82328 9.84159C7.7084 9.97307 7.5951 10.106 7.4834 10.2402C7.37617 9.58982 7.12624 8.95582 6.71389 8.39155L6.43594 8.01118L6.05743 8.29167C4.55695 9.40358 3.86718 11.6049 4.50945 13.4852C4.67601 13.9728 4.70526 14.5119 4.48925 14.9797C4.38619 15.2029 4.28684 15.4282 4.19127 15.6555C3.91601 15.1142 3.5277 14.623 3.0226 14.226L2.65221 13.9349L2.3636 14.3072C1.20835 15.7977 1.14279 18.1323 2.29744 19.7711C2.58697 20.182 2.76533 20.6762 2.70019 21.1747C2.66931 21.4109 2.64226 21.6484 2.61911 21.887C2.2097 21.469 1.71298 21.1273 1.13693 20.9009L0.698486 20.7285L0.528212 21.1678C-0.15611 22.9331 0.45043 25.1978 2.0349 26.4326C2.42932 26.74 2.74299 27.1579 2.82741 27.6508C2.83834 27.7146 2.84956 27.7784 2.86105 27.842C2.34696 27.5483 1.76797 27.3545 1.14324 27.2975L0.674089 27.2546L0.631829 27.7238C0.461988 29.6096 1.66836 31.6146 3.53042 32.358C3.99763 32.5445 4.41784 32.8608 4.63605 33.3141C4.75676 33.5649 4.8822 33.813 5.01224 34.0582C4.42764 33.9341 3.81083 33.9275 3.19227 34.0683L2.73292 34.1729L2.83612 34.6326C3.24981 36.4751 5.00273 38.0058 6.9953 38.1428C7.50124 38.1776 8.00223 38.3522 8.34952 38.7218C8.43719 38.8151 8.52569 38.9076 8.61499 38.9993C8.0338 39.0522 7.45571 39.2217 6.91581 39.5262L6.5055 39.7577L6.73452 40.1694C7.64445 41.8051 9.73054 42.7677 11.6655 42.3551C12.1575 42.2501 12.6826 42.2794 13.116 42.5348C13.263 42.6214 13.4111 42.7063 13.5603 42.7895C13.0078 43.0077 12.4921 43.3403 12.0542 43.7954L11.7276 44.1349L12.0648 44.4639C13.4069 45.7733 15.6884 46.0909 17.4258 45.1282C17.868 44.8831 18.3817 44.7583 18.8727 44.8787C18.8837 44.8814 18.8947 44.8841 18.9057 44.8867C18.3697 45.266 17.9105 45.7678 17.5841 46.3867L17.3644 46.8035L17.7799 47.0256C19.5762 47.9859 22.114 47.5069 23.4604 45.7705C23.5906 45.6025 23.7875 45.495 24 45.495C24.2125 45.495 24.4094 45.6025 24.5396 45.7705C25.886 47.5069 28.4238 47.9859 30.2201 47.0256L30.6356 46.8035L30.4159 46.3867C30.0895 45.7678 29.6303 45.266 29.0943 44.8867C29.1053 44.8841 29.1163 44.8814 29.1273 44.8787C29.6183 44.7583 30.132 44.8831 30.5742 45.1282C32.3116 46.0909 34.5931 45.7733 35.9352 44.4639L36.2724 44.1349L35.9458 43.7954C35.5079 43.3403 34.9922 43.0077 34.4398 42.7895C34.5889 42.7063 34.737 42.6214 34.884 42.5348C35.3174 42.2794 35.8425 42.2501 36.3345 42.3551C38.2695 42.7677 40.3555 41.8051 41.2655 40.1694L41.4945 39.7577L41.0842 39.5262C40.5443 39.2217 39.9662 39.0522 39.385 38.9993C40.9994 37.3414 42.3486 35.4234 43.3639 33.3141C43.5821 32.8608 44.0024 32.5445 44.4696 32.358C46.3316 31.6146 47.538 29.6096 47.3682 27.7238L47.3259 27.2546L46.8568 27.2975C46.232 27.3545 45.653 27.5483 45.1389 27.842C45.1504 27.7784 45.1617 27.7146 45.1726 27.6508C45.257 27.1579 45.5707 26.74 45.9651 26.4326C47.5496 25.1978 48.1561 22.9331 47.4718 21.1678L47.3015 20.7285L46.8631 20.9009C46.287 21.1273 45.7903 21.469 45.3809 21.887C45.3577 21.6484 45.3307 21.4109 45.2998 21.1747C45.2347 20.6762 45.413 20.182 45.7026 19.7711C46.8572 18.1323 46.7916 15.7977 45.6364 14.3072L45.3478 13.9349L44.9774 14.226C44.4723 14.623 44.084 15.1142 43.8087 15.6555C43.7132 15.4282 43.6138 15.2029 43.5107 14.9797C43.2947 14.5119 43.324 13.9728 43.4906 13.4852C44.1328 11.6049 43.4431 9.40358 41.9426 8.29167L41.5641 8.01118L41.2861 8.39155C40.8738 8.95582 40.6238 9.58982 40.5166 10.2402C40.4049 10.106 40.2916 9.97307 40.1767 9.84159C39.8349 9.45041 39.7124 8.91968 39.738 8.40086C39.8394 6.34147 38.4549 4.37509 36.6198 3.7884L36.171 3.64494L36.0294 4.09425C35.8207 4.75626 35.7851 5.43177 35.888 6.07765C35.6978 5.95093 35.5055 5.82717 35.3111 5.70643C34.8658 5.42981 34.5923 4.95237 34.4671 4.44328C33.9845 2.48136 32.163 1.00405 30.2712 0.928718L29.8005 0.909973L29.782 1.38072C29.7353 2.57111 30.2428 3.44714 30.8277 4.32575C31.3277 5.07689 32.0462 5.66106 32.8546 6.06194C39.4451 9.33 43.9749 16.1316 43.9749 23.9913C43.9749 35.0356 35.0311 43.9874 24 43.9874C12.9689 43.9874 4.0251 35.0356 4.0251 23.9913C4.0251 16.0477 8.65222 9.18478 15.3573 5.9584C16.0378 5.63098 16.662 5.17788 17.0972 4.56082C17.7587 3.62306 18.2684 2.66492 18.218 1.38072L18.1995 0.909973Z" fill="#E6C1C1"></path>
<mask id="path-3-outside-1_3378_48454" maskUnits="userSpaceOnUse" x="30.25" y="29.5" width="18" height="20" fill="black">
<rect fill="white" x="30.25" y="29.5" width="18" height="20"></rect>
<path fill-rule="evenodd" clip-rule="evenodd" d="M32.25 31.5H36.75L39 34.125L41.25 31.5H45.75L41.25 36.75H36.75L32.25 31.5ZM43.5 42.75C43.5 45.2353 41.4853 47.25 39 47.25C36.5147 47.25 34.5 45.2353 34.5 42.75C34.5 40.2647 36.5147 38.25 39 38.25C41.4853 38.25 43.5 40.2647 43.5 42.75Z"></path>
</mask>
<path d="M36.75 31.5L38.2685 30.1984C37.8885 29.7551 37.3338 29.5 36.75 29.5V31.5ZM32.25 31.5V29.5C31.4689 29.5 30.7593 29.9547 30.433 30.6643C30.1066 31.3739 30.2232 32.2086 30.7315 32.8016L32.25 31.5ZM39 34.125L37.4815 35.4266C37.8615 35.8699 38.4162 36.125 39 36.125C39.5838 36.125 40.1385 35.8699 40.5185 35.4266L39 34.125ZM41.25 31.5V29.5C40.6662 29.5 40.1115 29.7551 39.7315 30.1984L41.25 31.5ZM45.75 31.5L47.2685 32.8016C47.7768 32.2086 47.8934 31.3739 47.567 30.6643C47.2407 29.9547 46.5311 29.5 45.75 29.5V31.5ZM41.25 36.75V38.75C41.8338 38.75 42.3885 38.4949 42.7685 38.0516L41.25 36.75ZM36.75 36.75L35.2315 38.0516C35.6115 38.4949 36.1662 38.75 36.75 38.75V36.75ZM36.75 29.5H32.25V33.5H36.75V29.5ZM40.5185 32.8234L38.2685 30.1984L35.2315 32.8016L37.4815 35.4266L40.5185 32.8234ZM39.7315 30.1984L37.4815 32.8234L40.5185 35.4266L42.7685 32.8016L39.7315 30.1984ZM45.75 29.5H41.25V33.5H45.75V29.5ZM42.7685 38.0516L47.2685 32.8016L44.2315 30.1984L39.7315 35.4484L42.7685 38.0516ZM36.75 38.75H41.25V34.75H36.75V38.75ZM30.7315 32.8016L35.2315 38.0516L38.2685 35.4484L33.7685 30.1984L30.7315 32.8016ZM39 49.25C42.5899 49.25 45.5 46.3399 45.5 42.75H41.5C41.5 44.1307 40.3807 45.25 39 45.25V49.25ZM32.5 42.75C32.5 46.3399 35.4101 49.25 39 49.25V45.25C37.6193 45.25 36.5 44.1307 36.5 42.75H32.5ZM39 36.25C35.4101 36.25 32.5 39.1601 32.5 42.75H36.5C36.5 41.3693 37.6193 40.25 39 40.25V36.25ZM45.5 42.75C45.5 39.1601 42.5899 36.25 39 36.25V40.25C40.3807 40.25 41.5 41.3693 41.5 42.75H45.5Z" fill="white" mask="url(#path-3-outside-1_3378_48454)"></path>
<path d="M43.5 42.75C43.5 45.2353 41.4853 47.25 39 47.25C36.5147 47.25 34.5 45.2353 34.5 42.75C34.5 40.2647 36.5147 38.25 39 38.25C41.4853 38.25 43.5 40.2647 43.5 42.75Z" fill="#E6C1C1"></path>
<path d="M32.25 31.5H36.75L41.25 36.75H36.75L32.25 31.5Z" fill="#E6C1C1"></path>
<path d="M45.75 31.5H41.25L36.75 36.75H41.25L45.75 31.5Z" fill="#E6C1C1"></path>
</g>
<defs>
<clippath id="clip0_3378_48454">
<rect width="48" height="48" fill="white"></rect>
</clippath>
</defs>
</svg>